<svg width="90" height="78" viewBox="0 0 90 78" fill="none" xmlns="http://www.w3.org/2000/svg">
<path d="M89.1502 23.5768L89.0904 23.2339C89.0797 23.181 89.0741 23.128 89.0633 23.0765L82.8262 7.60933V0H6.69417V7.60951L0.560272 23.0752C0.546723 23.1366 0.538559 23.1979 0.527615 23.2577L0.47064 23.5768C0.386566 24.13 0.34314 24.6972 0.34314 25.2754C0.34314 29.4112 2.59054 33.0062 5.90172 34.8441V78H83.7219V34.8441C87.0304 33.0061 89.2805 29.4111 89.2805 25.2754C89.2805 24.6972 89.2343 24.13 89.1502 23.5768ZM84.9623 22.83H71.3481L69.7115 11.5334H80.4812L84.9623 22.83ZM10.4017 3.80404H79.1213V7.60951H10.4017V3.80404ZM68.1535 26.634L68.3543 28.0149L67.2579 29.5127C65.9443 31.3102 63.9358 32.3413 61.7509 32.3413C59.566 32.3413 57.5575 31.3102 56.2439 29.5127L55.1256 27.9828L55.0604 26.634H68.1535ZM54.8786 22.83L54.3385 11.5334H65.9632L67.6027 22.83H54.8786ZM51.3503 26.6338L51.4154 28.0134L50.3162 29.5127C49.0026 31.3102 46.9941 32.3413 44.8118 32.3413C42.6241 32.3413 40.6184 31.3102 39.302 29.5127L38.1783 27.9729L38.2435 26.6338H51.3503ZM38.4309 22.83L38.9873 11.5334H50.6309L51.1684 22.83H38.4309ZM22.04 22.83L23.6576 11.5334H35.2795L34.7204 22.83H22.04ZM34.5305 26.634L34.4626 28.0288L33.3769 29.5127C32.0606 31.3102 30.0548 32.3413 27.8699 32.3413C25.6851 32.3413 23.6793 31.3102 22.3629 29.5127L21.2936 28.0511L21.4972 26.634H34.5305ZM9.13977 11.5334H19.9123L18.2948 22.83H4.65886L9.13977 11.5334ZM4.17543 26.634H17.7516L17.4611 28.1124L16.4378 29.5129C15.1215 31.3104 13.1157 32.3415 10.9281 32.3415C7.58719 32.3415 4.79435 29.8835 4.17543 26.634ZM72.6047 74.1988H57.78V60.8775H59.6338C60.6571 60.8775 61.4875 60.0275 61.4875 58.9769C61.4875 57.9264 60.6571 57.0763 59.6338 57.0763H57.78V43.7551H72.6047V74.1988ZM80.0146 74.1988H80.0143H76.3095V39.9539H54.0752V74.1988H9.60652V36.0621C10.038 36.1177 10.4832 36.1471 10.9282 36.1471C14.3916 36.1471 17.4693 34.4388 19.3992 31.7982C21.3317 34.4388 24.4068 36.1471 27.8701 36.1471C31.3335 36.1471 34.4086 34.4388 36.341 31.7982C38.2707 34.4388 41.3486 36.1471 44.812 36.1471C48.2753 36.1471 51.3476 34.4388 53.2801 31.7982C55.2126 34.4388 58.2877 36.1471 61.7511 36.1471C65.2144 36.1471 68.2895 34.4388 70.222 31.7982C72.1545 34.4388 75.2268 36.1471 78.6901 36.1471C79.1407 36.1471 79.5804 36.1179 80.0146 36.0621V74.1988ZM78.6898 32.3415C76.5077 32.3415 74.4991 31.3104 73.1854 29.5129L72.1079 28.0443L71.8989 26.6342H85.4426C84.8239 29.8835 82.0336 32.3415 78.6898 32.3415Z" fill="#006CB7"/>
<path d="M13.3114 39.9536V66.5849H50.3704V39.9536H13.3114ZM46.6628 62.7837H17.0189V43.7548H46.6628V62.7837Z" fill="#006CB7"/>
<path d="M42.9445 53.2695C42.4315 53.2695 41.9674 53.4814 41.6335 53.8268L37.9287 57.6333C37.5921 57.976 37.3859 58.4526 37.3859 58.9763C37.3859 60.0269 38.2164 60.8767 39.2369 60.8767C39.7499 60.8767 40.214 60.6648 40.5479 60.3194L44.2526 56.5187C44.5893 56.173 44.7955 55.6967 44.7955 55.1701C44.7955 54.1222 43.9678 53.2695 42.9445 53.2695Z" fill="#006CB7"/>
<path d="M42.9445 45.6621C42.4316 45.6621 41.9674 45.874 41.6336 46.2195L30.5164 57.6313C30.1825 57.9741 29.9735 58.4533 29.9735 58.9773C29.9735 60.028 30.804 60.8779 31.8273 60.8779C32.3377 60.8779 32.8016 60.666 33.1355 60.3205L44.2527 48.9087C44.5893 48.5659 44.7955 48.0867 44.7955 47.5627C44.7955 46.512 43.9678 45.6621 42.9445 45.6621Z" fill="#006CB7"/>
</svg>
