<svg width="85" height="85" viewBox="0 0 85 85" fill="none" xmlns="http://www.w3.org/2000/svg">
<path d="M72.5136 0H12.4863V42.5193H22.4909V63.9446L34.9966 71.448V77.5353C35.4098 87.492 49.5939 87.4843 50.0034 77.5353V71.448L62.5091 63.9446V42.5193H72.5136V0ZM67.5114 5.00228V10.0046H17.4886V5.00228H67.5114ZM45.0011 27.5125V32.5148H39.9989V27.5125H45.0011ZM57.5068 37.5171V45.0205H27.4932V37.5171H57.5068ZM45.0011 77.5353C44.8634 80.8543 40.1353 80.8516 39.9989 77.5353V62.5284C40.1366 59.2094 44.8647 59.2121 45.0011 62.5284V77.5353ZM50.0034 65.6143V62.5284C49.5902 52.5717 35.4061 52.5794 34.9966 62.5284V65.6143L27.4932 61.1123V50.0228H57.5068V61.1123L50.0034 65.6143ZM62.5091 37.5171V32.5148H50.0034V27.5125H55.0057V22.5102H29.9943V27.5125H34.9966V32.5148H22.4909V37.5171H17.4886V15.0068H67.5114V37.5171H62.5091Z" fill="#006CB7"/>
</svg>
