<svg width="186" height="186" viewBox="0 0 186 186" fill="none" xmlns="http://www.w3.org/2000/svg">
<path d="M159.35 137.803L162.459 113.024C165.221 112.363 167.645 110.714 169.274 108.389C170.903 106.063 171.625 103.222 171.303 100.401C170.982 97.5798 169.638 94.974 167.527 93.0752C165.416 91.1764 162.683 90.1159 159.844 90.0938H156.673C156.08 86.653 154.468 83.4694 152.045 80.9553C149.622 78.4412 146.5 76.7124 143.083 75.9927L153.784 31.4108C154.967 26.4981 154.507 21.333 152.473 16.7072C150.439 12.0815 146.944 8.25039 142.524 5.80127C138.104 3.35215 133.003 2.42017 128.003 3.14821C123.002 3.87625 118.379 6.22411 114.84 9.83189L113.193 4.89126C113.036 4.42171 112.762 3.99998 112.396 3.66609C112.031 3.33219 111.586 3.09719 111.104 2.98337C110.622 2.86955 110.12 2.88068 109.643 3.0157C109.167 3.15073 108.733 3.40518 108.383 3.75492L104.044 8.08814L94.2991 3.21145C93.7716 2.94698 93.1761 2.84935 92.5918 2.93152C92.0074 3.0137 91.462 3.27179 91.0279 3.67149C90.5938 4.07118 90.2917 4.59354 90.1617 5.16912C90.0317 5.74469 90.0799 6.3462 90.3001 6.89367L94.8919 18.3734C90.3441 19.6128 86.2145 22.0556 82.9381 25.4445C79.6617 28.8334 77.3597 33.043 76.2745 37.6302C73.9403 34.6993 72.6652 31.0656 72.6562 27.3188V25.6215C74.3503 25.0226 75.818 23.9149 76.8584 22.4499C77.8988 20.985 78.4613 19.2344 78.4687 17.4375V11.625C78.4687 9.31269 77.5501 7.09504 75.9151 5.45996C74.28 3.82487 72.0623 2.90629 69.75 2.90629H46.5C44.1876 2.90629 41.97 3.82487 40.3349 5.45996C38.6998 7.09504 37.7812 9.31269 37.7812 11.625V17.4375C37.7887 19.2344 38.3511 20.985 39.3915 22.4499C40.432 23.9149 41.8996 25.0226 43.5937 25.6215V27.3188C43.5967 30.0641 42.9203 32.7675 41.6246 35.1879C40.329 37.6083 38.4545 39.6704 36.1682 41.1903C33.0879 43.2395 30.5619 46.0184 28.8151 49.2797C27.0684 52.541 26.1549 56.1837 26.1562 59.8833V90.0938C23.3169 90.1159 20.5838 91.1764 18.4726 93.0752C16.3615 94.974 15.0183 97.5798 14.6965 100.401C14.3747 103.222 15.0966 106.063 16.7258 108.389C18.3551 110.714 20.7792 112.363 23.5406 113.024L26.6503 137.803L17.1875 147.266C15.9189 148.534 15.0549 150.15 14.7048 151.91C14.3548 153.669 14.5344 155.493 15.221 157.151C15.9076 158.808 17.0703 160.225 18.562 161.222C20.0538 162.218 21.8076 162.75 23.6016 162.75C25.7665 162.731 27.854 161.942 29.4897 160.524L30.719 170.364C31.163 173.877 32.8719 177.107 35.5258 179.45C38.1797 181.793 41.5967 183.089 45.1369 183.094H140.863C144.403 183.089 147.82 181.793 150.474 179.45C153.128 177.107 154.837 173.877 155.281 170.364L156.51 160.524C157.816 161.673 159.427 162.418 161.148 162.672C162.869 162.925 164.626 162.675 166.208 161.951C167.79 161.227 169.128 160.061 170.062 158.593C170.995 157.126 171.484 155.419 171.469 153.68C171.472 152.488 171.239 151.307 170.783 150.206C170.327 149.105 169.657 148.106 168.812 147.266L159.35 137.803ZM134.891 113.344H156.551L154.145 132.598L134.891 113.344ZM165.656 101.719C165.656 103.26 165.044 104.739 163.954 105.829C162.864 106.919 161.385 107.531 159.844 107.531H129.078L117.453 95.9063H159.844C161.385 95.9063 162.864 96.5187 163.954 97.6087C165.044 98.6988 165.656 100.177 165.656 101.719ZM150.712 90.0938H111.641L105.578 84.0313C103.873 82.336 101.568 81.3815 99.1641 81.375C96.8718 81.3796 94.6674 82.2578 93 83.8308C92.1561 83.0431 91.1698 82.4237 90.0937 82.0057V59.8833C90.0937 59.4241 90.0356 58.9708 90.0094 58.5145C92.0126 59.0062 93.8478 60.0247 95.325 61.4643C95.8682 61.9968 96.5986 62.2951 97.3593 62.2951C98.1201 62.2951 98.8505 61.9968 99.3937 61.4643C100.764 60.1112 102.451 59.1214 104.3 58.5845C106.15 58.0476 108.104 57.9806 109.986 58.3895C111.868 58.7984 113.619 59.6703 115.079 60.9263C116.539 62.1823 117.663 63.7827 118.348 65.5825C118.61 66.2537 119.112 66.8038 119.756 67.126C120.401 67.4482 121.142 67.5196 121.836 67.3262C122.853 67.0212 123.907 66.8589 124.969 66.8438C128.052 66.8438 131.009 68.0686 133.189 70.2487C135.369 72.4288 136.594 75.3857 136.594 78.4688C136.594 79.2396 136.9 79.9788 137.445 80.5238C137.99 81.0688 138.729 81.375 139.5 81.375C142.07 81.3847 144.564 82.2455 146.592 83.823C148.621 85.4004 150.07 87.6056 150.712 90.0938ZM93 97.1095L103.422 107.531H82.5782L93 97.1095ZM131.31 8.71879C133.925 8.7192 136.506 9.31232 138.858 10.4536C141.211 11.5948 143.274 13.2545 144.893 15.3079C146.512 17.3613 147.645 19.7549 148.206 22.3089C148.767 24.8629 148.741 27.5108 148.132 30.0536L138.977 68.1894C137.37 65.9779 135.264 64.177 132.83 62.9331C130.396 61.6893 127.702 61.0377 124.969 61.0313C124.209 61.0326 123.45 61.0909 122.699 61.2057C121.462 58.9875 119.751 57.0701 117.687 55.5905C115.623 54.1109 113.258 53.1057 110.76 52.6468L114.131 23.994C114.627 19.7858 116.65 15.9057 119.816 13.09C122.983 10.2744 127.073 8.71891 131.31 8.71879ZM98.5364 11.8314L103.326 14.2261C103.872 14.4985 104.489 14.5922 105.091 14.4942C105.693 14.3961 106.249 14.1112 106.68 13.6798L109.165 11.192L110.661 15.6705C110.182 16.6235 109.771 17.6092 109.432 18.6204C106.935 17.8401 104.335 17.4414 101.719 17.4375C101.408 17.4375 101.108 17.4724 100.8 17.484L98.5364 11.8314ZM101.719 23.25C103.936 23.2478 106.14 23.6091 108.24 24.3195L104.916 52.516C102.187 52.9232 99.5952 53.9796 97.3593 55.5966C94.8398 53.7938 91.8814 52.7025 88.7946 52.4375C87.3738 48.3962 84.8228 44.8476 81.4447 42.2133C81.7944 37.0726 84.0816 32.2561 87.8447 28.7363C91.6077 25.2166 96.5661 23.2558 101.719 23.25ZM43.5937 11.625C43.5937 10.8543 43.8999 10.115 44.4449 9.57001C44.99 9.02499 45.7292 8.71879 46.5 8.71879H69.75C70.5208 8.71879 71.26 9.02499 71.805 9.57001C72.35 10.115 72.6562 10.8543 72.6562 11.625V17.4375C72.6562 18.2083 72.35 18.9475 71.805 19.4926C71.26 20.0376 70.5208 20.3438 69.75 20.3438H46.5C45.7292 20.3438 44.99 20.0376 44.4449 19.4926C43.8999 18.9475 43.5937 18.2083 43.5937 17.4375V11.625ZM31.9687 59.8833C31.9657 57.138 32.6422 54.4346 33.9378 52.0142C35.2335 49.5938 37.108 47.5317 39.3942 46.0118C42.4745 43.9626 45.0005 41.1837 46.7473 37.9224C48.4941 34.6611 49.4075 31.0185 49.4062 27.3188V26.1563H66.8437V27.3188C66.8401 31.0209 67.7523 34.6665 69.4992 37.9305C71.2461 41.1946 73.7733 43.9758 76.8558 46.0263C79.1399 47.5449 81.0132 49.6047 82.3087 52.0223C83.6042 54.44 84.2818 57.1404 84.2812 59.8833V81.7906C82.8282 82.2045 81.5015 82.9747 80.4217 84.0313L78.4687 85.9844V63.9375C78.4687 63.1668 78.1625 62.4275 77.6175 61.8825C77.0725 61.3375 76.3333 61.0313 75.5625 61.0313H40.6875C39.9167 61.0313 39.1775 61.3375 38.6324 61.8825C38.0874 62.4275 37.7812 63.1668 37.7812 63.9375V90.0938H31.9687V59.8833ZM72.6562 90.0938H43.5937V66.8438H72.6562V90.0938ZM20.3437 101.719C20.3437 100.177 20.9561 98.6988 22.0462 97.6087C23.1362 96.5187 24.6146 95.9063 26.1562 95.9063H68.5468L56.9218 107.531H26.1562C24.6146 107.531 23.1362 106.919 22.0462 105.829C20.9561 104.739 20.3437 103.26 20.3437 101.719ZM29.449 113.344H51.1093L31.8554 132.598L29.449 113.344ZM23.6016 156.938C22.957 156.938 22.3267 156.747 21.7906 156.389C21.2545 156.031 20.8366 155.522 20.5899 154.927C20.3431 154.331 20.2786 153.676 20.4045 153.044C20.5304 152.411 20.841 151.831 21.297 151.375L84.5312 88.1408C84.9868 87.6848 85.5675 87.3742 86.1997 87.2483C86.8319 87.1224 87.4873 87.187 88.0828 87.4337C88.6784 87.6805 89.1873 88.0983 89.5453 88.6344C89.9032 89.1706 90.0941 89.8008 90.0937 90.4454C90.0954 90.8736 90.012 91.2978 89.8484 91.6934C89.6847 92.0891 89.4441 92.4482 89.1405 92.7501L25.9063 155.984C25.2928 156.592 24.4651 156.934 23.6016 156.938ZM66.8437 127.875V162.75C66.8437 163.521 66.5375 164.26 65.9925 164.805C65.4475 165.35 64.7083 165.656 63.9375 165.656C63.1667 165.656 62.4275 165.35 61.8824 164.805C61.3374 164.26 61.0312 163.521 61.0312 162.75V129.078L64.9372 125.172C65.4935 125.373 65.9746 125.74 66.3156 126.224C66.6565 126.707 66.8409 127.284 66.8437 127.875ZM149.512 169.644C149.249 171.752 148.224 173.691 146.632 175.098C145.039 176.504 142.988 177.281 140.863 177.281H45.1369C43.0122 177.281 40.9609 176.504 39.3683 175.098C37.7757 173.691 36.7514 171.752 36.4879 169.644L34.7064 155.403L55.2187 134.891V162.75C55.2187 165.062 56.1373 167.28 57.7724 168.915C59.4075 170.55 61.6251 171.469 63.9375 171.469C66.2498 171.469 68.4675 170.55 70.1026 168.915C71.7376 167.28 72.6562 165.062 72.6562 162.75V127.875C72.6528 126.528 72.3359 125.201 71.7306 123.998C71.1253 122.795 70.2482 121.749 69.1687 120.944L76.7657 113.344H109.234L116.831 120.944C115.752 121.749 114.875 122.795 114.269 123.998C113.664 125.201 113.347 126.528 113.344 127.875V162.75C113.344 165.062 114.262 167.28 115.897 168.915C117.532 170.55 119.75 171.469 122.062 171.469C124.375 171.469 126.592 170.55 128.228 168.915C129.863 167.28 130.781 165.062 130.781 162.75V134.891L151.294 155.403L149.512 169.644ZM119.156 127.875C119.159 127.284 119.343 126.707 119.684 126.224C120.025 125.74 120.506 125.373 121.063 125.172L124.969 129.078V162.75C124.969 163.521 124.663 164.26 124.118 164.805C123.572 165.35 122.833 165.656 122.062 165.656C121.292 165.656 120.552 165.35 120.007 164.805C119.462 164.26 119.156 163.521 119.156 162.75V127.875ZM162.398 156.938C161.535 156.934 160.707 156.592 160.094 155.984L96.8595 92.7501C96.4035 92.2945 96.0929 91.7138 95.967 91.0816C95.8411 90.4493 95.9056 89.794 96.1524 89.1984C96.3991 88.6029 96.817 88.0939 97.3531 87.736C97.8892 87.378 98.5195 87.1872 99.1641 87.1875C100.028 87.1908 100.855 87.5331 101.469 88.1408L164.703 151.375C165.159 151.831 165.47 152.411 165.595 153.044C165.721 153.676 165.657 154.331 165.41 154.927C165.163 155.522 164.745 156.031 164.209 156.389C163.673 156.747 163.043 156.938 162.398 156.938Z" fill="#006CB7"/>
<path d="M93 119.156C90.6876 119.156 88.47 120.075 86.8349 121.71C85.1998 123.345 84.2813 125.563 84.2812 127.875V162.75C84.2813 165.062 85.1998 167.28 86.8349 168.915C88.47 170.55 90.6876 171.469 93 171.469C95.3124 171.469 97.53 170.55 99.1651 168.915C100.8 167.28 101.719 165.062 101.719 162.75V127.875C101.719 125.563 100.8 123.345 99.1651 121.71C97.53 120.075 95.3124 119.156 93 119.156ZM95.9062 162.75C95.9062 163.521 95.6001 164.26 95.055 164.805C94.51 165.35 93.7708 165.656 93 165.656C92.2292 165.656 91.49 165.35 90.945 164.805C90.3999 164.26 90.0938 163.521 90.0938 162.75V127.875C90.0938 127.104 90.3999 126.365 90.945 125.82C91.49 125.275 92.2292 124.969 93 124.969C93.7708 124.969 94.51 125.275 95.055 125.82C95.6001 126.365 95.9062 127.104 95.9062 127.875V162.75Z" fill="#006CB7"/>
<path d="M122.54 23.2897L121.584 29.0231L139.022 31.9293L139.978 26.1959L122.54 23.2897Z" fill="#006CB7"/>
<path d="M119.635 37.8219L118.68 43.5554L136.118 46.4616L137.073 40.7282L119.635 37.8219Z" fill="#006CB7"/>
</svg>
