<svg width="168" height="174" viewBox="0 0 168 174" fill="none" xmlns="http://www.w3.org/2000/svg">
<path d="M151.819 34.8016H156.702C161.382 34.8016 165.176 30.9063 165.176 26.1012V8.7004C165.176 3.8953 161.382 0 156.702 0H116.177C112.67 0.00465196 109.213 0.842409 106.074 2.44771L93.8977 8.7004H88.9154C84.2357 8.7004 80.442 12.5957 80.442 17.4008C80.442 22.2059 84.2357 26.1012 88.9154 26.1012H93.8977L103.097 30.8255C103.304 41.2649 100.716 51.5623 95.615 60.5954C94.8417 61.9857 95.312 63.7564 96.6657 64.5511C97.0908 64.8028 97.573 64.9348 98.0638 64.934C99.0758 64.9371 100.012 64.3839 100.518 63.4839C105.649 54.3464 108.482 44.0402 108.76 33.4965C111.144 34.3531 113.651 34.7942 116.177 34.8016H116.394L101.493 97.8737C100.643 101.219 100.213 104.662 100.213 108.12V159.507C100.223 167.512 106.54 173.998 114.335 174.008H153.878C161.673 173.998 167.991 167.512 168 159.507V108.12C168.001 104.678 167.575 101.251 166.732 97.9201L151.819 34.8016ZM161.252 99.3353C161.9 101.941 162.251 104.616 162.3 107.305H136.931V58.0027C140.051 58.0027 142.58 55.4058 142.58 52.2024V34.8016H146.009L161.252 99.3353ZM136.931 52.2024H131.282V34.8016H136.931V52.2024ZM86.0909 17.4008C86.0909 15.7991 87.3555 14.5007 88.9154 14.5007H91.7398V20.3009H88.9154C87.3555 20.3009 86.0909 19.0025 86.0909 17.4008ZM114.335 28.8911V23.2011C114.335 21.5994 113.071 20.3009 111.511 20.3009C109.951 20.3009 108.687 21.5994 108.687 23.2011V27.2032C108.658 27.1887 108.627 27.18 108.602 27.1655L97.3887 21.4088V13.3928L108.602 7.63605C108.627 7.63605 108.658 7.61285 108.687 7.59835V11.6005C108.687 13.2022 109.951 14.5007 111.511 14.5007C113.071 14.5007 114.335 13.2022 114.335 11.6005V5.91047C114.947 5.83899 115.562 5.8022 116.177 5.80027H156.702C158.262 5.80027 159.527 7.0987 159.527 8.7004V26.1012C159.527 27.7029 158.262 29.0013 156.702 29.0013H116.177C115.562 28.9994 114.947 28.9626 114.335 28.8911ZM122.204 34.8016H125.633V52.2024C125.633 55.4058 128.162 58.0027 131.282 58.0027V107.305H105.913C105.963 104.6 106.318 101.91 106.972 99.2889L122.204 34.8016ZM153.878 168.208H114.335C109.656 168.208 105.862 164.312 105.862 159.507V113.105H131.282V153.707C131.282 155.309 132.547 156.607 134.107 156.607C135.666 156.607 136.931 155.309 136.931 153.707V113.105H162.351V159.507C162.351 164.312 158.557 168.208 153.878 168.208Z" fill="#006CB7"/>
<path d="M91.7398 75.4035C91.7398 51.1322 71.6071 34.384 66.3198 30.405V14.5007C66.3104 6.49614 59.9931 0.00958819 52.1975 0H40.8997C33.1041 0.00958819 26.7868 6.49614 26.7775 14.5007V30.405C21.4901 34.384 1.35742 51.1322 1.35742 75.4035C1.53276 85.395 2.46005 95.3576 4.13103 105.202C5.89348 117.139 7.41586 127.446 4.3824 135.227C1.29246 143.168 -2.99506 157.851 3.05209 167.004C6.10532 171.653 11.243 174.008 18.3041 174.008H74.7931C81.8542 174.008 86.9919 171.653 90.0452 167.004C96.081 157.851 91.7935 143.168 88.7035 135.227C85.6701 127.446 87.1925 117.139 88.9549 105.202C90.6297 95.3579 91.5607 85.3952 91.7398 75.4035ZM32.4264 14.5007C32.4264 9.69557 36.22 5.80027 40.8997 5.80027H52.1975C56.8772 5.80027 60.6709 9.69557 60.6709 14.5007V29.0013H32.4264V14.5007ZM85.3792 163.753C83.402 166.758 79.9393 168.208 74.7931 168.208H18.3041C13.158 168.208 9.6952 166.758 7.71808 163.753C4.4276 158.762 5.14218 148.904 9.63023 137.385C13.2314 128.139 11.6073 117.104 9.71779 104.324C8.09399 94.7691 7.18749 85.1006 7.00632 75.4035C7.00632 53.5045 26.5967 37.7278 30.5001 34.8016H62.5971C66.5005 37.7278 86.0909 53.5045 86.0909 75.4035C85.9102 85.1035 85.0037 94.7749 83.3794 104.332C81.4955 117.093 79.8658 128.139 83.467 137.394C87.955 148.904 88.6696 158.762 85.3792 163.753Z" fill="#006CB7"/>
<path d="M66.3198 52.2025C58.4113 52.2025 52.1975 63.0287 52.1975 76.8537C52.1975 90.6787 58.4113 101.505 66.3198 101.505C74.2282 101.505 80.442 90.6787 80.442 76.8537C80.442 63.0287 74.2282 52.2025 66.3198 52.2025ZM66.3198 95.7047C62.3119 95.7047 57.8464 87.9642 57.8464 76.8537C57.8464 65.7433 62.3119 58.0028 66.3198 58.0028C70.3277 58.0028 74.7931 65.7433 74.7931 76.8537C74.7931 87.9642 70.3277 95.7047 66.3198 95.7047Z" fill="#006CB7"/>
<path d="M114.335 124.706C115.895 124.706 117.16 123.407 117.16 121.806C117.16 120.204 115.895 118.905 114.335 118.905C112.776 118.905 111.511 120.204 111.511 121.806C111.511 123.407 112.776 124.706 114.335 124.706Z" fill="#006CB7"/>
<path d="M122.809 142.106C124.369 142.106 125.633 140.808 125.633 139.206C125.633 137.605 124.369 136.306 122.809 136.306C121.249 136.306 119.984 137.605 119.984 139.206C119.984 140.808 121.249 142.106 122.809 142.106Z" fill="#006CB7"/>
<path d="M153.878 124.706C155.438 124.706 156.702 123.407 156.702 121.806C156.702 120.204 155.438 118.905 153.878 118.905C152.318 118.905 151.053 120.204 151.053 121.806C151.053 123.407 152.318 124.706 153.878 124.706Z" fill="#006CB7"/>
<path d="M153.878 159.507C155.438 159.507 156.702 158.209 156.702 156.607C156.702 155.005 155.438 153.707 153.878 153.707C152.318 153.707 151.053 155.005 151.053 156.607C151.053 158.209 152.318 159.507 153.878 159.507Z" fill="#006CB7"/>
<path d="M145.404 142.106C146.964 142.106 148.229 140.808 148.229 139.206C148.229 137.605 146.964 136.306 145.404 136.306C143.844 136.306 142.58 137.605 142.58 139.206C142.58 140.808 143.844 142.106 145.404 142.106Z" fill="#006CB7"/>
<path d="M117.16 162.407C118.72 162.407 119.984 161.109 119.984 159.507C119.984 157.906 118.72 156.607 117.16 156.607C115.6 156.607 114.336 157.906 114.336 159.507C114.336 161.109 115.6 162.407 117.16 162.407Z" fill="#006CB7"/>
</svg>
