<svg width="85" height="89" viewBox="0 0 85 89" fill="none" xmlns="http://www.w3.org/2000/svg">
<g clip-path="url(#clip0_1_146)">
<path d="M5.9702 43.8593L14.0075 77.6714C14.8235 81.104 17.9268 83.5954 21.3867 83.5954H63.2194C66.6378 83.5954 69.6042 81.1594 70.4333 77.6714L78.4707 43.8593C78.734 42.7519 79.8627 41.8846 81.0407 41.8846H84.6062V36.6707C82.5355 36.6707 80.7146 36.6707 78.683 36.6707L71.8846 18.7952C69.9915 13.8176 65.4746 10.6015 60.3774 10.6015H59.654V5.3877H24.9522V10.6015H24.2288C19.1111 10.6015 14.4204 13.8942 12.5565 18.7952L5.7579 36.6707C3.66618 36.6707 1.99407 36.6707 0 36.6707V41.8846H3.56552C4.70487 41.8847 5.69391 42.6966 5.9702 43.8593ZM29.9095 10.6015H54.6964V15.8153H29.9095V10.6015ZM17.1594 20.7315C18.2776 17.7911 21.1187 15.8153 24.2288 15.8153H24.9522V21.0291H59.6539V15.8153H60.3773C63.4357 15.8153 66.1457 17.7452 67.2815 20.7315L73.3436 36.6707H11.0972L17.1594 20.7315ZM73.8683 41.883C73.7888 42.1166 73.7188 42.353 73.6615 42.5949L65.6241 76.4071C65.3476 77.5698 64.3589 78.3818 63.2194 78.3818H21.3867C20.2088 78.3818 19.08 77.5144 18.8167 76.4071L10.7794 42.5949C10.7219 42.3529 10.6529 42.1163 10.5753 41.883H73.8683Z" fill="#006CB7"/>
<path d="M39.8243 47.0984H44.7817V73.1676H39.8243V47.0984Z" fill="#006CB7"/>
<path d="M54.6964 47.0984H59.6537V73.1676H54.6964V47.0984Z" fill="#006CB7"/>
<path d="M24.9521 47.0984H29.9095V73.1676H24.9521V47.0984Z" fill="#006CB7"/>
</g>
<defs>
<clipPath id="clip0_1_146">
<rect width="84.6061" height="88.9832" fill="white"/>
</clipPath>
</defs>
</svg>
