<svg width="180" height="180" viewBox="0 0 180 180" fill="none" xmlns="http://www.w3.org/2000/svg">
<path d="M50.625 54.8863C49.0691 54.8863 47.8125 53.6284 47.8125 52.0738V2.8125C47.8125 1.25656 49.0691 0 50.625 0C52.1809 0 53.4375 1.25656 53.4375 2.8125V52.0738C53.4375 53.6256 52.1809 54.8863 50.625 54.8863Z" fill="#006CB7"/>
<path d="M67.5055 54.8918C65.9509 54.8918 64.693 53.6339 64.693 52.0793V2.8125C64.693 1.25656 65.9509 0 67.5055 0C69.0614 0 70.318 1.25656 70.318 2.8125V52.0793C70.318 53.6311 69.0614 54.8918 67.5055 54.8918Z" fill="#006CB7"/>
<path d="M67.5055 5.625H50.625C49.0691 5.625 47.8125 4.36844 47.8125 2.8125C47.8125 1.25656 49.0691 0 50.625 0H67.5055C69.0614 0 70.318 1.25656 70.318 2.8125C70.318 4.36844 69.0614 5.625 67.5055 5.625Z" fill="#006CB7"/>
<path d="M33.75 174.375C32.1941 174.375 30.9375 173.118 30.9375 171.562V75.9402C30.9375 74.3856 32.1941 73.1277 33.75 73.1277C35.3059 73.1277 36.5625 74.3856 36.5625 75.9402V171.562C36.5625 173.118 35.3059 174.375 33.75 174.375Z" fill="#006CB7"/>
<path d="M84.375 174.375C82.8191 174.375 81.5625 173.118 81.5625 171.562V75.9402C81.5625 74.3856 82.8191 73.1277 84.375 73.1277C85.9309 73.1277 87.1875 74.3856 87.1875 75.9402V171.562C87.1875 173.118 85.9309 174.375 84.375 174.375Z" fill="#006CB7"/>
<path d="M84.375 78.7583C82.819 78.7583 81.5625 77.5017 81.5625 75.9458C81.5625 66.4316 75.5351 57.9062 66.5661 54.7284C65.1008 54.2079 64.3359 52.6026 64.8564 51.14C65.3714 49.6747 66.9795 48.9125 68.4448 49.4303C79.655 53.3977 87.1875 64.0544 87.1875 75.9485C87.1875 77.5017 85.9309 78.7583 84.375 78.7583Z" fill="#006CB7"/>
<path d="M33.75 78.7583C32.1941 78.7583 30.9375 77.5018 30.9375 75.9458C30.9375 64.0435 38.4755 53.384 49.6884 49.4207C51.1592 48.9043 52.7618 49.6693 53.2741 51.1346C53.7945 52.5999 53.0241 54.2053 51.5616 54.7202C42.5926 57.8925 36.5625 66.4207 36.5625 75.9431C36.5625 77.5018 35.3059 78.7583 33.75 78.7583Z" fill="#006CB7"/>
<path d="M39.375 180C34.7237 180 30.9375 176.214 30.9375 171.562C30.9375 170.007 32.1941 168.75 33.75 168.75C35.3059 168.75 36.5625 170.007 36.5625 171.562C36.5625 173.114 37.8232 174.375 39.375 174.375C40.9309 174.375 42.1875 175.632 42.1875 177.188C42.1875 178.743 40.9309 180 39.375 180Z" fill="#006CB7"/>
<path d="M78.75 180C77.1941 180 75.9375 178.743 75.9375 177.188C75.9375 175.632 77.1941 174.375 78.75 174.375C80.3018 174.375 81.5625 173.114 81.5625 171.562C81.5625 170.007 82.8191 168.75 84.375 168.75C85.9309 168.75 87.1875 170.007 87.1875 171.562C87.1875 176.214 83.4013 180 78.75 180Z" fill="#006CB7"/>
<path d="M78.75 180H39.375C37.8191 180 36.5625 178.743 36.5625 177.188C36.5625 175.632 37.8191 174.375 39.375 174.375H78.75C80.3059 174.375 81.5625 175.632 81.5625 177.188C81.5625 178.743 80.3059 180 78.75 180Z" fill="#006CB7"/>
<path d="M67.5055 19.6792H50.625C49.0691 19.6792 47.8125 18.4213 47.8125 16.8667C47.8125 15.3108 49.0691 14.0542 50.625 14.0542H67.5055C69.0614 14.0542 70.318 15.3108 70.318 16.8667C70.318 18.4213 69.0614 19.6792 67.5055 19.6792Z" fill="#006CB7"/>
<path d="M67.5055 47.8125H50.625C49.0691 47.8125 47.8125 46.5559 47.8125 45C47.8125 43.4441 49.0691 42.1875 50.625 42.1875H67.5055C69.0614 42.1875 70.318 43.4441 70.318 45C70.318 46.5559 69.0614 47.8125 67.5055 47.8125Z" fill="#006CB7"/>
<path d="M75.9375 157.5H42.1875C40.6316 157.5 39.375 156.243 39.375 154.688V89.9973C39.375 88.4414 40.6316 87.1848 42.1875 87.1848H75.9375C77.4934 87.1848 78.75 88.4414 78.75 89.9973V154.688C78.75 156.243 77.4934 157.5 75.9375 157.5ZM45 151.875H73.125V92.8098H45V151.875Z" fill="#006CB7"/>
<path d="M54.8438 118.117C50.9656 118.117 47.8125 114.964 47.8125 111.085C47.8125 107.207 50.9656 104.054 54.8438 104.054C58.7219 104.054 61.875 107.207 61.875 111.085C61.875 114.964 58.7219 118.117 54.8438 118.117ZM54.8438 109.679C54.0706 109.679 53.4375 110.312 53.4375 111.085C53.4375 111.859 54.0706 112.492 54.8438 112.492C55.6169 112.492 56.25 111.859 56.25 111.085C56.25 110.312 55.6169 109.679 54.8438 109.679Z" fill="#006CB7"/>
<path d="M63.2812 118.117C59.4031 118.117 56.25 114.964 56.25 111.085C56.25 107.207 59.4031 104.054 63.2812 104.054C67.1594 104.054 70.3125 107.207 70.3125 111.085C70.3125 114.964 67.1594 118.117 63.2812 118.117ZM63.2812 109.679C62.5081 109.679 61.875 110.312 61.875 111.085C61.875 111.859 62.5081 112.492 63.2812 112.492C64.0544 112.492 64.6875 111.859 64.6875 111.085C64.6875 110.312 64.0544 109.679 63.2812 109.679Z" fill="#006CB7"/>
<path d="M59.0625 126.554C55.1843 126.554 52.0312 123.401 52.0312 119.523C52.0312 115.645 55.1843 112.492 59.0625 112.492C62.9407 112.492 66.0938 115.645 66.0938 119.523C66.0938 123.401 62.9407 126.554 59.0625 126.554ZM59.0625 118.117C58.2893 118.117 57.6562 118.75 57.6562 119.523C57.6562 120.296 58.2893 120.929 59.0625 120.929C59.8357 120.929 60.4688 120.296 60.4688 119.523C60.4688 118.75 59.8357 118.117 59.0625 118.117Z" fill="#006CB7"/>
<path d="M59.0625 113.898C57.5066 113.898 56.25 112.64 56.25 111.085V101.242C56.25 99.6858 57.5066 98.4292 59.0625 98.4292C60.6184 98.4292 61.875 99.6858 61.875 101.242V111.085C61.875 112.64 60.6184 113.898 59.0625 113.898Z" fill="#006CB7"/>
<path d="M67.5 137.804H50.6195C49.0636 137.804 47.807 136.546 47.807 134.992C47.807 133.436 49.0636 132.179 50.6195 132.179H67.5C69.0559 132.179 70.3125 133.436 70.3125 134.992C70.3125 136.546 69.0559 137.804 67.5 137.804Z" fill="#006CB7"/>
<path d="M61.8695 146.245H56.25C54.6941 146.245 53.4375 144.987 53.4375 143.432C53.4375 141.876 54.6941 140.62 56.25 140.62H61.8695C63.4241 140.62 64.682 141.876 64.682 143.432C64.682 144.987 63.4241 146.245 61.8695 146.245Z" fill="#006CB7"/>
<path d="M123.755 143.448C109.797 143.448 98.443 132.094 98.443 118.139C98.443 116.584 99.7009 115.326 101.255 115.326C102.811 115.326 104.068 116.584 104.068 118.139C104.068 128.992 112.902 137.823 123.755 137.823C134.606 137.823 143.438 128.992 143.438 118.139C143.438 116.584 144.694 115.326 146.25 115.326C147.806 115.326 149.062 116.584 149.062 118.139C149.062 132.094 137.711 143.448 123.755 143.448Z" fill="#006CB7"/>
<path d="M101.247 120.965C101.104 120.965 100.96 120.954 100.817 120.932C99.2807 120.696 98.2287 119.258 98.465 117.723L104.09 81.1656C104.328 79.6303 105.761 78.5893 107.299 78.8145C108.835 79.0508 109.887 80.4886 109.65 82.0239L104.025 118.581C103.81 119.969 102.611 120.965 101.247 120.965Z" fill="#006CB7"/>
<path d="M146.236 120.965C144.871 120.965 143.674 119.969 143.459 118.581L137.834 82.0239C137.598 80.4886 138.65 79.0507 140.187 78.8145C141.75 78.5701 143.159 79.633 143.395 81.1656L149.02 117.723C149.256 119.258 148.204 120.696 146.669 120.932C146.523 120.954 146.376 120.965 146.236 120.965Z" fill="#006CB7"/>
<path d="M140.614 84.4093H106.87C105.314 84.4093 104.057 83.1514 104.057 81.5968C104.057 80.0409 105.314 78.7843 106.87 78.7843H140.614C142.169 78.7843 143.427 80.0409 143.427 81.5968C143.427 83.1514 142.169 84.4093 140.614 84.4093Z" fill="#006CB7"/>
<path d="M123.755 180C122.201 180 120.943 178.743 120.943 177.188V140.647C120.943 139.092 122.201 137.834 123.755 137.834C125.311 137.834 126.568 139.092 126.568 140.647V177.188C126.568 178.743 125.311 180 123.755 180Z" fill="#006CB7"/>
<path d="M143.427 180H104.057C102.501 180 101.245 178.743 101.245 177.188C101.245 175.632 102.501 174.375 104.057 174.375H143.427C144.981 174.375 146.239 175.632 146.239 177.188C146.239 178.743 144.981 180 143.427 180Z" fill="#006CB7"/>
<path d="M146.261 120.951H101.245C99.6886 120.951 98.432 119.695 98.432 118.139C98.432 116.584 99.6886 115.326 101.245 115.326H146.261C147.817 115.326 149.073 116.584 149.073 118.139C149.073 119.695 147.817 120.951 146.261 120.951Z" fill="#006CB7"/>
</svg>
